<?xml version="1.0" encoding="utf-8"?>
<!-- Generator: Adobe Illustrator 26.0.1, SVG Export Plug-In . SVG Version: 6.00 Build 0)  -->
<svg version="1.1" id="Concept2" xmlns="http://www.w3.org/2000/svg" xmlns:xlink="http://www.w3.org/1999/xlink" x="0px" y="0px"
	 viewBox="0 0 648.8 137.7" style="enable-background:new 0 0 648.8 137.7;" xml:space="preserve">
<style type="text/css">
	.st0{fill:#FC3BB5;}
</style>
<g>
	<g>
		<path class="st0" d="M195,75c0,21.9-15.9,39-36.2,39c-7.9,0-14.6-2.6-19.7-6.9v30.6l-27.8-0.2v-100l27.8,0.2v5.2
			c5.1-4.3,11.8-6.9,19.7-6.9C179.1,36,195,53.1,195,75z M167.3,75c0-8.4-6.4-14.8-14.8-14.8c-8.2,0-14.8,6.4-14.8,14.8
			c0,8.4,6.6,14.8,14.8,14.8C160.9,89.8,167.3,83.4,167.3,75z"/>
		<path class="st0" d="M275.6,79.5h-55.9c0.6,9.8,4.1,15,14.2,15c7.7,0,12.6-2.8,13.9-7.7h26.6c-3.4,16.3-17.4,27.2-40.3,27.2
			c-26.4,0-43.9-15-43.9-39c0-24.2,17.6-39.2,43.1-39.2c25.7,0,42.2,15,42.4,39L275.6,79.5z M220.9,64.1h26.2
			c-2.1-5.1-6-7.9-13.1-7.9C226.5,56.3,222.8,59.1,220.9,64.1z"/>
		<path class="st0" d="M352.9,63.6v48.9h-27.8v-42c0-6-4.1-10.3-10.3-10.3s-11.2,4.3-11.2,10.3v42h-27.8v-75h27.8v10.9
			c5.6-7.7,14.1-12.4,24.2-12.4C342.8,36,352.9,46.9,352.9,63.6z"/>
		<path class="st0" d="M426.6,83.1c0,18.9-13.1,30.9-38.2,30.9c-22.1,0-34.9-9.4-37.5-24.6l28.3-8.6c0.8,4.9,4.5,8.4,9.2,8.4
			c5.2,0,9.6-4.5,9.6-9.9V24.9h-36.4V0h65.1V83.1z"/>
		<path class="st0" d="M426.2,83.1V37.5h27.9v42c0,5.8,4.1,10.3,9.6,10.3c5.6,0,9.9-4.5,9.9-10.3v-42h27.8v45.6
			c0,18.9-12.9,30.9-37.7,30.9C439.1,114,426.2,102,426.2,83.1z"/>
		<path class="st0" d="M551.6,112.5l-23.1-31.3v31.3h-27.8V0h27.8v62.2L552,37.5h32.8l-32.2,34.1l34.7,40.9H551.6z"/>
		<path class="st0" d="M648.6,79.5h-55.9c0.6,9.8,4.1,15,14.2,15c7.7,0,12.6-2.8,13.9-7.7h26.6c-3.4,16.3-17.4,27.2-40.3,27.2
			c-26.4,0-43.9-15-43.9-39c0-24.2,17.6-39.2,43.1-39.2c25.7,0,42.2,15,42.4,39L648.6,79.5z M593.8,64.1h26.2
			c-2.1-5.1-6-7.9-13.1-7.9C599.5,56.3,595.7,59.1,593.8,64.1z"/>
	</g>
	<g>
		<g>
			<circle class="st0" cx="56.3" cy="56.3" r="5.6"/>
		</g>
		<g>
			<path class="st0" d="M96.2,16.6v56.8h0L93,76.6l1.4,1.4L83.1,89.3l-1.4-1.4l-3.2,3.2l-2.8-2.8l3.2-3.2l-1.4-1.4l11.3-11.3
				l1.4,1.4l2-2V13C82.4,4.9,69.9,0,56.3,0C25.2,0,0,25.2,0,56.3c0,24,15.1,44.5,36.3,52.6L49.7,76c-8.3-2.7-14.3-10.5-14.3-19.8
				c0-11.6,9.3-20.8,20.8-20.8c11.6,0,20.8,9.3,20.8,20.8c0,9.3-6,17-14.3,19.8l13.4,32.8c21.2-8.1,36.3-28.6,36.3-52.6
				C112.5,40.8,106.3,26.8,96.2,16.6z"/>
		</g>
	</g>
</g>
</svg>
